<?xml version="1.0" encoding="UTF-8" standalone="no"?>
<!-- Created with Inkscape (http://www.inkscape.org/) -->

<svg
   width="124.99999"
   height="50"
   viewBox="0 0 33.072914 13.229167"
   version="1.1"
   id="svg5"
   xmlns:xlink="http://www.w3.org/1999/xlink"
   xmlns="http://www.w3.org/2000/svg"
   xmlns:svg="http://www.w3.org/2000/svg">
  <defs
     id="defs2">
    <linearGradient
       id="linearGradient2625">
      <stop
         style="stop-color:#c000ff;stop-opacity:1;"
         offset="0"
         id="stop2621" />
      <stop
         style="stop-color:#ff00ff;stop-opacity:1;"
         offset="1"
         id="stop2623" />
    </linearGradient>
    <linearGradient
       xlink:href="#linearGradient2625"
       id="linearGradient2627"
       x1="3.96875"
       y1="19.84375"
       x2="35.71875"
       y2="19.84375"
       gradientUnits="userSpaceOnUse"
       gradientTransform="matrix(0.43820484,0,0,0.43820484,-0.1989972,1.8877045)" />
  </defs>
  <g
     id="layer1"
     transform="matrix(0.83810257,0,0,0.83810257,-0.09463892,-2.2553343)">
    <path
       id="rect234"
       style="fill:url(#linearGradient2627);fill-opacity:1;fill-rule:evenodd;stroke-width:0;stroke-linecap:square"
       d="m 2.5308411,3.6268297 c -0.5488883,0 -0.990713,0.4418248 -0.990713,0.9907131 V 16.549121 c 0,0.548887 0.4418247,0.990713 0.990713,0.990713 H 14.46242 c 0.548887,0 0.990713,-0.441826 0.990713,-0.990713 V 4.6175428 c 0,-0.5488883 -0.441826,-0.9907131 -0.990713,-0.9907131 z m 1.6179761,2.0289804 c 0.4817355,0 0.8695626,0.3878258 0.8695626,0.8695626 0,0.4817368 -0.3878271,0.8695626 -0.8695626,0.8695626 -0.4817368,0 -0.8695626,-0.3878258 -0.8695626,-0.8695626 0,-0.4817368 0.3878258,-0.8695626 0.8695626,-0.8695626 z m 2.8557435,0 h 5.8826823 c 0.458015,0 0.826763,0.3687485 0.826763,0.8267644 v 0.085601 c 0,0.4580158 -0.368748,0.8267644 -0.826763,0.8267644 H 7.0045607 c -0.4580146,0 -0.8267644,-0.3687486 -0.8267644,-0.8267644 v -0.085601 c 0,-0.4580159 0.3687498,-0.8267644 0.8267644,-0.8267644 z m -2.898543,3.7681043 h 8.7812253 c 0.458015,0 0.826763,0.3687498 0.826763,0.8267646 v 0.0856 c 0,0.458016 -0.368748,0.826763 -0.826763,0.826763 H 4.1060177 c -0.4580145,0 -0.8267631,-0.368747 -0.8267631,-0.826763 v -0.0856 c 0,-0.4580148 0.3687486,-0.8267646 0.8267631,-0.8267646 z m 0,4.0579596 h 5.8826824 c 0.4580159,0 0.8267639,0.36875 0.8267639,0.826764 v 0.0856 c 0,0.458014 -0.368748,0.826764 -0.8267639,0.826764 H 4.1060177 c -0.4580145,0 -0.8267631,-0.36875 -0.8267631,-0.826764 v -0.0856 c 0,-0.458014 0.3687486,-0.826764 0.8267631,-0.826764 z m 8.7384263,0 c 0.481736,0 0.869562,0.387827 0.869562,0.869562 0,0.481737 -0.387826,0.869564 -0.869562,0.869564 -0.481737,0 -0.869563,-0.387827 -0.869563,-0.869564 0,-0.481735 0.387826,-0.869562 0.869563,-0.869562 z" />
    <path
       id="path3620"
       style="font-weight:bold;font-size:4.4004px;font-family:Play;-inkscape-font-specification:'Play, Normal';fill:#ffffff;fill-rule:evenodd;stroke:#ffffff;stroke-width:0;stroke-linecap:square;stroke-opacity:1"
       d="M 29.310527,5.5635406 V 7.0460161 C 29.219051,6.9106354 29.120145,6.819007 29.014031,6.7714367 c -0.106106,-0.051226 -0.290865,-0.076708 -0.554316,-0.076708 -0.365905,0 -0.635007,0.058223 -0.806982,0.1753189 -0.168316,0.1170956 -0.252021,0.3258207 -0.252021,0.6258623 v 1.0370873 c 0,0.3915179 0.06915,0.643923 0.208191,0.7573528 0.139044,0.1134284 0.435764,0.1701614 0.889485,0.1701614 0.190271,0 0.336487,-0.012473 0.438941,-0.03803 0.102453,-0.021952 0.178877,-0.055355 0.230107,-0.099259 0.05123,-0.047572 0.107952,-0.120351 0.170162,-0.2191487 v 0.3016506 h 0.77411 V 5.5635344 Z M 17.680185,5.8439225 v 3.5618077 h 0.855969 V 8.0064026 h 0.395111 l 0.933315,1.3993276 h 0.988103 L 19.82075,7.940658 c 0.230521,-0.029274 0.422553,-0.1027018 0.576232,-0.2197935 0.15734,-0.1170831 0.235907,-0.2836461 0.235907,-0.4995294 V 6.5954728 c 0,-0.2744285 -0.107678,-0.4679579 -0.323567,-0.5813877 C 20.093439,5.9006567 19.750903,5.8439225 19.282548,5.8439225 Z m 13.16696,0 v 3.5618077 h 0.785067 V 6.7714367 h 0.02191 l 0.927515,2.6342935 h 0.685805 L 34.16789,6.7714367 H 34.184 v 2.6342935 h 0.77411 V 5.8439225 H 33.810808 L 32.943882,8.3905577 32.065998,5.8439225 Z M 18.536154,6.4530262 h 0.735436 c 0.190269,0 0.324072,0.025457 0.400913,0.076708 0.0805,0.047572 0.120538,0.1370533 0.120538,0.2687796 v 0.2526646 c 0,0.1536772 -0.0364,0.2577199 -0.109575,0.3126093 -0.07318,0.051226 -0.210622,0.077344 -0.41187,0.077344 H 18.53616 Z m 4.012352,0.2417084 c -0.435426,0 -0.762759,0.072792 -0.982302,0.2191475 -0.219542,0.1463619 -0.329367,0.3899911 -0.329367,0.7302803 v 0.9545854 c 0,0.5744702 0.469912,0.8617695 1.410284,0.8617695 0.358587,0 0.706259,-0.034899 1.04289,-0.104423 V 8.8462524 c -0.329314,0.076845 -0.625389,0.1147256 -0.888841,0.1147256 -0.292723,0 -0.492033,-0.032766 -0.598146,-0.098611 C 22.096917,8.7928434 22.043819,8.6830209 22.043819,8.5329994 V 8.2912922 h 1.722894 V 7.6441587 c 0,-0.3549261 -0.100407,-0.6021937 -0.301652,-0.7412366 C 23.263816,6.7638793 22.958318,6.6947309 22.548506,6.6947309 Z m 2.919831,0 c -0.373221,0 -0.711472,0.018198 -1.015173,0.054793 v 0.5046857 c 0.395177,-0.043905 0.705811,-0.065745 0.93267,-0.065745 0.241497,0 0.399276,0.027615 0.472458,0.082508 0.07685,0.051226 0.115375,0.1574129 0.115375,0.3184105 v 0.1811189 h -0.900443 c -0.311017,0 -0.527027,0.061865 -0.647777,0.1862764 -0.120751,0.12075 -0.181121,0.3382573 -0.181121,0.6529334 0,0.3476095 0.05887,0.5766792 0.175964,0.6864506 0.117096,0.1097739 0.354936,0.1643616 0.713522,0.1643616 0.292724,0 0.493532,-0.02184 0.603304,-0.065745 0.109761,-0.047572 0.194117,-0.1246416 0.252664,-0.2307497 v 0.2417072 h 0.785068 v -1.827956 c 0,-0.3512678 -0.09527,-0.5848302 -0.285537,-0.7019207 C 26.29904,6.7551146 25.958647,6.6947458 25.468336,6.6947458 Z m 11.46018,0 c -0.435426,0 -0.762759,0.072792 -0.9823,0.2191475 -0.219543,0.1463619 -0.329368,0.3899911 -0.329368,0.7302803 v 0.9545854 c 0,0.5744702 0.469912,0.8617695 1.410285,0.8617695 0.358587,0 0.706257,-0.034899 1.042889,-0.104423 V 8.8462524 c -0.329314,0.076845 -0.625389,0.1147256 -0.88884,0.1147256 -0.292724,0 -0.492035,-0.032766 -0.598147,-0.098611 C 36.476917,8.7928434 36.423831,8.6830209 36.423831,8.5329994 V 8.2912922 H 38.14737 V 7.6441587 c 0,-0.3549261 -0.101055,-0.6021937 -0.302297,-0.7412366 C 37.643827,6.7638793 37.33833,6.6947309 36.928517,6.6947309 Z m -14.42642,0.4937282 c 0.0116,-1.858e-4 0.02332,0 0.03545,0 0.17563,0 0.296374,0.023985 0.362239,0.071544 0.06952,0.043905 0.104423,0.1079155 0.104423,0.1920776 V 7.83624 H 22.04382 V 7.4520861 c 0,-0.084167 0.03277,-0.148173 0.09862,-0.1920775 0.06517,-0.044591 0.185143,-0.068763 0.359661,-0.071544 z m 6.243156,0 c 0.234175,0 0.386176,0.02547 0.4557,0.076708 0.07318,0.051226 0.109574,0.1428545 0.109574,0.2745807 v 1.0699596 c 0,0.1427074 -0.0364,0.2379753 -0.109574,0.2855382 -0.07318,0.043905 -0.239738,0.065745 -0.49953,0.065745 -0.21588,0 -0.353323,-0.025457 -0.411871,-0.076708 -0.05855,-0.054881 -0.08766,-0.15529 -0.08766,-0.3016519 V 7.5668168 c 0,-0.1573431 0.02911,-0.2592454 0.08766,-0.3068082 0.05855,-0.047559 0.210545,-0.071544 0.455701,-0.071544 z m 8.136856,0 c 0.0116,-1.858e-4 0.02334,0 0.03545,0 0.175631,0 0.296374,0.023985 0.36224,0.071544 0.06952,0.043905 0.104423,0.1079155 0.104423,0.1920776 V 7.83624 H 36.423834 V 7.4520861 c 0,-0.084167 0.03275,-0.148173 0.09861,-0.1920775 0.06517,-0.044591 0.185144,-0.068763 0.359661,-0.071544 z M 25.424508,8.2094376 h 0.54916 v 0.5156431 c 0,0.047572 -0.0072,0.0861 -0.02191,0.1153743 -0.01463,0.029274 -0.03348,0.053247 -0.05543,0.071544 -0.0183,0.014631 -0.05254,0.025557 -0.103775,0.032878 -0.05123,0.00736 -0.09918,0.012473 -0.14309,0.016115 h -0.203035 c -0.186616,0 -0.303719,-0.018198 -0.351283,-0.054793 -0.04391,-0.036596 -0.06575,-0.1406344 -0.06575,-0.3126094 0,-0.175637 0.02184,-0.2839653 0.06575,-0.3242104 0.0439,-0.04025 0.153733,-0.059945 0.329368,-0.059945 z m -4.270175,3.3755314 v 3.841546 h 0.801182 v -3.841546 z m -3.474148,0.279737 v 3.561809 h 1.481831 c 0.468357,0 0.821811,-0.05824 1.059647,-0.175319 0.237838,-0.117083 0.356439,-0.323679 0.356439,-0.620061 v -0.549162 c 0,-0.131725 -0.06037,-0.248828 -0.18112,-0.351281 -0.117083,-0.102453 -0.24147,-0.160684 -0.373197,-0.175319 v -0.02771 c 0.102453,-0.02927 0.19408,-0.08815 0.27458,-0.175964 0.0805,-0.08782 0.120525,-0.18244 0.120525,-0.284892 V 12.62722 c 0,-0.281746 -0.08948,-0.478915 -0.268779,-0.592345 -0.179292,-0.113429 -0.521184,-0.170163 -1.02613,-0.170163 z m 0.855969,0.609104 h 0.571075 c 0.21588,0 0.35118,0.02184 0.406068,0.06574 0.05489,0.0439 0.08251,0.124617 0.08251,0.241709 v 0.175319 c 0,0.135382 -0.02911,0.229149 -0.08766,0.28038 -0.05488,0.05123 -0.183551,0.07671 -0.384799,0.07671 H 18.53616 Z m 5.362048,0.241708 c -0.126466,0.0012 -0.235874,0.0065 -0.328723,0.01612 -0.102452,0.0074 -0.219556,0.03131 -0.351281,0.07155 -0.131725,0.03658 -0.239409,0.08968 -0.323567,0.159205 -0.0805,0.06952 -0.150288,0.169925 -0.208836,0.301652 -0.05489,0.128065 -0.08251,0.283704 -0.08251,0.466657 v 0.785067 c 0,0.171975 0.02761,0.319692 0.08251,0.444098 0.05488,0.12075 0.122534,0.216014 0.203035,0.285538 0.0805,0.06587 0.184543,0.117457 0.312609,0.154049 0.131725,0.03658 0.250971,0.05842 0.357083,0.06574 0.109774,0.01098 0.241433,0.01612 0.395112,0.01612 0.153679,0 0.283844,-0.0051 0.389955,-0.01612 0.109774,-0.0074 0.228373,-0.02916 0.35644,-0.06574 0.131723,-0.03658 0.23791,-0.08818 0.318409,-0.154049 0.0805,-0.06952 0.148147,-0.164791 0.203035,-0.285538 0.05489,-0.124405 0.08251,-0.272123 0.08251,-0.444098 v -0.785067 c 0,-0.182953 -0.02976,-0.338592 -0.08831,-0.466657 -0.05488,-0.131724 -0.124031,-0.232128 -0.208191,-0.301652 -0.0805,-0.06952 -0.186683,-0.122621 -0.31841,-0.159205 -0.131725,-0.04025 -0.250326,-0.06422 -0.356439,-0.07155 -0.102452,-0.01098 -0.228977,-0.01612 -0.378997,-0.01612 -0.01875,0 -0.03737,-1.71e-4 -0.05543,0 z m 3.051966,0 c -0.431766,0 -0.722707,0.06551 -0.872727,0.197234 -0.150021,0.128067 -0.22495,0.371695 -0.22495,0.73028 v 1.037089 c 0,0.307358 0.08071,0.517587 0.241709,0.631018 0.164657,0.113429 0.437399,0.170163 0.81794,0.170163 0.263451,0 0.448204,-0.02334 0.554316,-0.0709 0.106107,-0.05123 0.20502,-0.144997 0.296496,-0.280382 v 0.42863 c 0,0.208564 -0.06037,0.354784 -0.18112,0.438941 -0.117083,0.08782 -0.309766,0.131489 -0.576877,0.131489 -0.281746,0 -0.601799,-0.02334 -0.960386,-0.0709 v 0.537558 c 0.223202,0.02561 0.543255,0.03868 0.960386,0.03868 0.508607,0 0.894813,-0.08071 1.158264,-0.241708 0.26711,-0.160998 0.400914,-0.435239 0.400914,-0.823096 V 12.77032 h -0.77411 v 0.301652 c -0.0622,-0.0988 -0.118929,-0.170088 -0.170163,-0.213992 -0.05123,-0.04757 -0.127652,-0.08247 -0.230106,-0.104423 -0.102452,-0.02561 -0.249316,-0.03803 -0.439586,-0.03803 z m -2.996534,0.49373 c 0.219541,0 0.365759,0.03126 0.438941,0.09346 0.07318,0.05855 0.109575,0.158949 0.109575,0.301652 v 1.004216 c 1e-6,0.13904 -0.0364,0.236449 -0.109575,0.291338 -0.06952,0.05489 -0.215739,0.08251 -0.438941,0.08251 -0.223201,0 -0.371559,-0.02763 -0.444743,-0.08251 -0.06952,-0.05488 -0.104423,-0.152294 -0.104423,-0.291338 V 13.60436 c 0,-0.1427 0.03703,-0.243104 0.110223,-0.301652 0.07318,-0.0622 0.219399,-0.09346 0.438943,-0.09346 z m 3.199569,0 c 0.259791,0 0.426347,0.02398 0.49953,0.07154 0.07318,0.04391 0.110222,0.137035 0.110222,0.279737 v 1.070606 c 0,0.131721 -0.03703,0.222704 -0.110222,0.273934 -0.06952,0.05123 -0.221522,0.07735 -0.4557,0.07735 -0.245154,0 -0.396508,-0.02399 -0.455056,-0.07155 -0.05855,-0.04757 -0.08831,-0.150112 -0.08831,-0.307452 V 13.58824 c 0,-0.146366 0.02976,-0.245275 0.08831,-0.296496 0.05855,-0.05489 0.195342,-0.08249 0.411226,-0.08249 z m -8.617049,0.658734 h 0.724479 c 0.171972,0 0.291218,0.02762 0.357082,0.08251 0.06952,0.05488 0.104424,0.148011 0.104424,0.279736 v 0.285538 c 0,0.106107 -0.04432,0.182535 -0.132135,0.230106 -0.08782,0.04756 -0.235531,0.07155 -0.444097,0.07155 h -0.609748 z" />
  </g>
</svg>
